<svg height='100%' width='100%'  fill="currentColor" xmlns="http://www.w3.org/2000/svg" xmlns:xlink="http://www.w3.org/1999/xlink" version="1.1" x="0px" y="0px" viewBox="0 0 100 100" enable-background="new 0 0 100 100" xml:space="preserve"><path fill-rule="evenodd" clip-rule="evenodd" d="M71.139,55.466c-5.423-2.301-10.479-4.453-16.065-6.83  c-2.595,7.208-6.155,14.986,0.233,24.733c3.409,5.201,2.48,13.42,2.815,20.301c0.063,1.237-3.308,3.763-4.975,3.661  c-1.729-0.101-4.86-2.834-4.722-4.128c1.282-12.045-5.7-20.604-11.533-29.783c-1.603-2.519-1.957-5.833-3.042-9.282  c-1.332-0.164-3.219-0.332-5.082-0.632c-4.88-0.772-7.449-2.9-5.694-8.443c1.603-5.082,2.234-10.482,4.015-15.488  c0.896-2.506,3.687-6.448,5.107-6.24c3.542,0.521,6.799,3.04,11.987,5.688c7.733-2.784,10.498-1.575,17.436,9.775  c4.337,7.086,7.058,7.979,14.197,4.384c2.316,4.45,3.466,7.395-0.354,12.991c-4.06,5.953-3.832,14.816-5.518,22.397  c-1.414,6.356-2.885,12.701-4.33,19.052c-0.922-0.202-1.844-0.404-2.765-0.606C65.641,83.027,68.431,69.051,71.139,55.466z"></path><path fill-rule="evenodd" clip-rule="evenodd" d="M66.146,13.551c-0.158,5.927-5.17,10.646-10.952,10.318  c-5.549-0.315-10.006-5.009-10.031-10.58C45.137,7.453,50.055,2.51,55.824,2.576C61.632,2.639,66.303,7.614,66.146,13.551z"></path><path fill-rule="evenodd" clip-rule="evenodd" d="M34.134,64.613c2.639,5.385,6.357,9.355,5.744,12.474  c-1.281,6.527-4.583,12.745-7.714,18.748c-0.625,1.193-4.791,1.8-6.274,0.916c-1.478-0.871-2.759-4.368-2.178-6.022  C26.578,82.522,30.088,74.543,34.134,64.613z"></path></svg>